HIERARCHY
ROOT ui
{
	 OFFSET 0 0 0
	 CHANNELS 3 XPosition YPosition Z Position
	 EndSite
	 {
	 OFFSET 0 -1 0
	 }
}
ROOT li
{
	 OFFSET 0 0 0
	 CHANNELS 3 XPosition YPosition Z Position
	 EndSite
	 {
	 OFFSET 0 -1 0
	 }
}
ROOT ul
{
	 OFFSET 0 0 0
	 CHANNELS 3 XPosition YPosition Z Position
	 EndSite
	 {
	 OFFSET 0 -1 0
	 }
}
ROOT ll
{
	 OFFSET 0 0 0
	 CHANNELS 3 XPosition YPosition Z Position
	 EndSite
	 {
	 OFFSET 0 -1 0
	 }
}
ROOT tt
{
	 OFFSET 0 0 0
	 CHANNELS 3 XPosition YPosition Z Position
	 EndSite
	 {
	 OFFSET 0 -1 0
	 }
}
ROOT tb
{
	 OFFSET 0 0 0
	 CHANNELS 3 XPosition YPosition Z Position
	 EndSite
	 {
	 OFFSET 0 -1 0
	 }
}
ROOT td
{
	 OFFSET 0 0 0
	 CHANNELS 3 XPosition YPosition Z Position
	 EndSite
	 {
	 OFFSET 0 -1 0
	 }
}
ROOT v
{
	 OFFSET 0 0 0
	 CHANNELS 3 XPosition YPosition Z Position
	 EndSite
	 {
	 OFFSET 0 -1 0
	 }
}
ROOT bn
{
	 OFFSET 0 0 0
	 CHANNELS 3 XPosition YPosition Z Position
	 EndSite
	 {
	 OFFSET 0 -1 0
	 }
}
MOTION
Frames: 32
Frame Time: 0.002
-7.854920029640198E-4	-1.2186399847269058E-4	0		0.4880502014160156	-2.516919921875	0		-1.0546025390625	0.027909244537353516	0		-0.8380162353515626	-2.651819091796875	0		1.2079171142578125	-0.9623603515625	0		3.088297607421875	-0.39467276000976564	0		4.73542333984375	-0.25322006225585936	0		5.626689453125	0.1720006561279297	0		-0.32450146484375	5.812513671875	0		
-0.0069623680114746095	-0.007107673168182373	0		0.4591191101074219	-2.516695068359375	0		-1.0547288818359375	0.027797441482543945	0		-0.7680077514648438	-2.661442138671875	0		1.207866455078125	-0.9622992553710937	0		3.125134521484375	-0.4037467956542969	0		4.72925830078125	-0.26084390258789064	0		5.63653662109375	0.1703240509033203	0		-0.32995660400390625	5.8274951171875	0		
-0.0010411089658737183	-1.8692299723625184E-4	0		0.46119598388671873	-2.5137099609375	0		-1.05083251953125	0.031655818939208984	0		-0.8378733520507813	-2.652009765625	0		1.16685205078125	-0.9559376831054688	0		3.08215380859375	-0.3872289428710938	0		4.73129541015625	-0.24054379272460938	0		5.63551953125	0.18771368408203126	0		-0.3295259399414063	5.82642919921875	0		
-0.0011785249710083007	-2.2293399274349212E-4	0		0.4372870483398438	-2.5065361328125	0		-1.0469427490234375	0.035516582489013675	0		-0.761849365234375	-2.655666748046875	0		1.2137877197265625	-0.9552396850585938	0		3.124923828125	-0.40336679077148435	0		4.72713037109375	-0.2462186279296875	0		5.635369140625	0.18807240295410158	0		-0.37918844604492186	5.8107333984375	0		
0.002708928108215332	0.0037101049423217776	0		0.46227105712890626	-2.511728271484375	0		-1.0470867919921876	0.035410999298095706	0		-0.7987952880859375	-2.652482421875	0		1.2047303466796875	-0.9521322021484375	0		3.125932861328125	-0.3862086181640625	0		4.7239609375	-0.25192620849609376	0		5.6301640625	0.18143862915039063	0		-0.3466580200195313	5.81742919921875	0		
-0.001464629054069519	-2.988300025463104E-4	0		0.4622757263183594	-2.5117392578125	0		-1.05126220703125	0.03133978652954102	0		-0.7678485717773438	-2.66179345703125	0		1.2046424560546876	-0.9520989990234375	0		3.11379736328125	-0.38797412109375	0		4.72193359375	-0.2376700897216797	0		5.6300087890625	0.1817343292236328	0		-0.3612198486328125	5.80747216796875	0		
-0.0016097370386123657	-3.3775100111961364E-4	0		0.4612493286132813	-2.513746337890625	0		-1.0514090576171875	0.031245216369628907	0		-0.8157719116210937	-2.650526611328125	0		1.2045478515625	-0.9520740356445313	0		3.081680908203125	-0.38661679077148436	0		4.7167431640625	-0.2454223175048828	0		5.63578173828125	0.17195085144042968	0		-0.3466081848144531	5.8163056640625	0		
-0.0017537440061569213	-3.7705698609352115E-4	0		0.4622361755371094	-2.511771484375	0		-1.03754052734375	0.03305672454833984	0		-0.7698875122070312	-2.663933349609375	0		1.166420166015625	-0.9557846069335938	0		3.134546142578125	-0.38789346313476564	0		4.72559619140625	-0.24730738830566407	0		5.6446220703125	0.17110833740234374	0		-0.3299649047851563	5.82412841796875	0		
0.012069313049316407	-0.0055162739753723145	0		0.4392449951171875	-2.50462841796875	0		-1.098652587890625	0.03741161346435547	0		-0.8358287353515625	-2.650532470703125	0		1.21836572265625	-0.949149169921875	0		3.10449267578125	-0.3775951843261719	0		4.7255791015625	-0.2311605224609375	0		5.634603515625	0.18936282348632813	0		-0.3333143615722656	5.82709716796875	0		
0.005018559932708741	0.006494608879089356	0		0.4661678771972656	-2.507844970703125	0		-1.0387562255859375	0.04191067123413086	0		-0.7768877563476563	-2.652017578125	0		1.2123099365234375	-0.9421061401367188	0		3.085340576171875	-0.3813983459472656	0		4.72140771484375	-0.23701762390136719	0		5.62041162109375	0.1826062774658203	0		-0.3497032470703125	5.8181611328125	0		
-0.0021626009941101074	-4.933319985866546E-4	0		0.4350860900878906	-2.5096513671875	0		-1.0388887939453124	0.041846683502197266	0		-0.8169585571289063	-2.6527919921875	0		1.204131591796875	-0.9520565185546875	0		3.0901689453125	-0.3883935852050781	0		4.7231826171875	-0.25095018005371095	0		5.62521826171875	0.17467498779296875	0		-0.38401611328125	5.81335546875	0		
-0.0022903270721435546	-5.29541015625E-4	0		0.4879527893066406	-2.517053955078125	0		-1.039017333984375	0.041791812896728515	0		-0.78207470703125	-2.65808984375	0		1.20402099609375	-0.9520709838867187	0		3.122033203125	-0.39060000610351564	0		4.71610205078125	-0.24485206604003906	0		5.63506591796875	0.1716695556640625	0		-0.34922113037109376	5.81706494140625	0		
-0.005436171054840088	-0.003542582035064697	0		0.4349064331054687	-2.509709228515625	0		-1.02821337890625	0.031668811798095706	0		-0.8082047729492188	-2.66294921875	0		1.2039066162109375	-0.9520919799804688	0		3.110018798828125	-0.3755155944824219	0		4.71597998046875	-0.24483428955078124	0		5.6390029296875	0.18066903686523436	0		-0.33433990478515624	5.8269208984375	0		
0.0014908430576324463	0.003376041889190674	0		0.4637947082519531	-2.509943603515625	0		-1.0233075561523437	0.0355970687866211	0		-0.8052869873046875	-2.659005859375	0		1.1448818359375	-0.938703125	0		3.106919677734375	-0.37251260375976564	0		4.71585888671875	-0.24484524536132812	0		5.6388798828125	0.18066217041015625	0		-0.31452362060546873	5.8217470703125	0		
0.0013715670108795167	0.00334712290763855	0		0.4656849060058594	-2.5079873046875	0		-1.0234268188476563	0.03557001495361328	0		-0.780390625	-2.65620947265625	0		1.211738037109375	-0.9422062377929687	0		3.122792236328125	-0.373659912109375	0		4.7067607421875	-0.24181939697265625	0		5.619775390625	0.1827568359375	0		-0.34966665649414064	5.81696533203125	0		
-0.002772510051727295	-6.502670049667358E-4	0		0.48949929809570314	-2.515185791015625	0		-1.02354248046875	0.035552330017089843	0		-0.7825414428710937	-2.658215087890625	0		1.20060791015625	-0.9431637573242188	0		3.08170263671875	-0.3694209289550781	0		4.706642578125	-0.2418819580078125	0		5.6196611328125	0.18268711853027345	0		-0.33565277099609375	5.82884326171875	0		
-0.0028846869468688967	-6.728569865226745E-4	0		0.461374755859375	-2.512017333984375	0		-1.0236541748046875	0.03554365158081055	0		-0.786718017578125	-2.662198486328125	0		1.1915113525390626	-0.9391392211914062	0		3.1035283203125	-0.37764083862304687	0		4.715505859375	-0.24503225708007811	0		5.61448046875	0.17262350463867188	0		-0.36973416137695314	5.82206591796875	0		
-0.0029921610355377196	-6.926530003547669E-4	0		0.46121920776367187	-2.512046142578125	0		-1.0947874755859375	0.03204673385620117	0		-0.8578108520507812	-2.652700439453125	0		1.139337646484375	-0.9458131713867187	0		3.131427001953125	-0.37591860961914064	0		4.7084365234375	-0.2390928955078125	0		5.634369140625	0.17135447692871095	0		-0.3317169494628906	5.82378369140625	0		
0.00395612096786499	0.006240087985992432	0		0.4401214904785156	-2.502925537109375	0		-1.0058192138671875	0.04142269897460937	0		-0.7670286254882812	-2.660343994140625	0		1.211239990234375	-0.942370361328125	0		3.11638818359375	-0.36590554809570314	0		4.71528662109375	-0.245274169921875	0		5.6283359375	0.1802427978515625	0		-0.334655517578125	5.82679541015625	0		
0.010776802062988282	-0.005825076103210449	0		0.46491897583007813	-2.508132080078125	0		-1.0918951416015625	0.044050571441650394	0		-0.8541185913085938	-2.648716064453125	0		1.1611773681640625	-0.93406396484375	0		3.106234130859375	-0.3729396362304688	0		4.7172001953125	-0.24344053649902345	0		5.6391259765625	0.16298619079589843	0		-0.33458026123046875	5.8267900390625	0		
7.561960220336914E-4	0.0032320139408111574	0		0.46072161865234373	-2.5121328125	0		-1.0240380859375	0.035585205078125	0		-0.7922864379882812	-2.648146484375	0		1.1990887451171874	-0.930389404296875	0		3.12212890625	-0.3741719055175781	0		4.7061142578125	-0.24253277587890626	0		5.62411083984375	0.17189175415039062	0		-0.35053564453125	5.81790185546875	0		
-0.006371292114257812	-0.0037307848930358887	0		0.46055093383789064	-2.512163330078125	0		-1.1001048583984374	0.03715789794921875	0		-0.8184976196289062	-2.65294287109375	0		1.1459278564453126	-0.9370650024414062	0		3.12203759765625	-0.3743013916015625	0		4.710962890625	-0.25175697326660157	0		5.63403271484375	0.17059715270996093	0		-0.3693673400878906	5.82203857421875	0		
-0.003419955015182495	-7.656329870223999E-4	0		0.4603789978027344	-2.5121953125	0		-1.0141903076171874	0.034565547943115234	0		-0.7697417602539063	-2.662278076171875	0		1.186869384765625	-0.9304222412109375	0		3.11409765625	-0.3543836059570312	0		4.71796923828125	-0.24001211547851561	0		5.6239697265625	0.17042823791503905	0		-0.3200870056152344	5.8376845703125	0		
5.457929968833924E-4	0.0031918909549713136	0		0.437259033203125	-2.505060791015625	0		-1.076228515625	0.03804817962646485	0		-0.8487791748046875	-2.642682373046875	0		1.1537886962890624	-0.92724609375	0		3.1249091796875	-0.3696111145019531	0		4.70991015625	-0.2381706085205078	0		5.63392041015625	0.171099365234375	0		-0.33397842407226563	5.826787109375	0		
4.89982008934021E-4	0.0031782441139221193	0		0.4910520935058594	-2.510490234375	0		-1.0002921752929688	0.03652518844604492	0		-0.7749928588867188	-2.648200927734375	0		1.19271923828125	-0.9235980224609375	0		3.12696142578125	-0.3527806091308594	0		4.71074072265625	-0.2524033203125	0		5.62299755859375	0.18791229248046876	0		-0.300721435546875	5.83354638671875	0		
-0.0035871920585632323	-8.066369891166687E-4	0		0.45987399291992187	-2.512298583984375	0		-1.072306884765625	0.041088748931884765	0		-0.8101255493164062	-2.642921142578125	0		1.1865770263671875	-0.930623291015625	0		3.12286767578125	-0.35691033935546873	0		4.716740234375	-0.2446806182861328	0		5.638765625	0.16151979064941407	0		-0.32046157836914063	5.838693359375	0		
-0.006648229122161865	-0.003800467014312744	0		0.4876936645507812	-2.515544677734375	0		-0.9963458251953125	0.04055795669555664	0		-0.78425244140625	-2.6380927734375	0		1.18347216796875	-0.9336732788085937	0		3.09485009765625	-0.35186593627929685	0		4.7146748046875	-0.24690447998046874	0		5.6197353515625	0.1613787841796875	0		-0.35327618408203126	5.8319375	0		
-0.0036539199352264404	-8.418359756469727E-4	0		0.4346075439453125	-2.507190673828125	0		-1.0513851318359375	0.03899769973754883	0		-0.7934578857421875	-2.645007080078125	0		1.1864222412109375	-0.930771240234375	0		3.1447666015625	-0.3574061889648438	0		4.7236201171875	-0.24921507263183593	0		5.6337744140625	0.1689874725341797	0		-0.33695989990234376	5.8408154296875	0		
0.010293754577636718	-0.005969252109527588	0		0.465488525390625	-2.505467041015625	0		-0.9654151000976563	0.03637783050537109	0		-0.823521484375	-2.63476611328125	0		1.1504552001953126	-0.9185791015625	0		3.111902099609375	-0.3353298645019531	0		4.71271484375	-0.23337911987304688	0		5.63376806640625	0.1686978759765625	0		-0.30364529418945313	5.84756005859375	0		
3.642039895057678E-4	0.0030805199146270753	0		0.43838946533203127	-2.5033095703125	0		-1.0433406982421876	0.045988399505615236	0		-0.7586065063476563	-2.630245361328125	0		1.1864210205078125	-0.9179309692382812	0		3.12978955078125	-0.34863671875	0		4.7215546875	-0.2536925048828125	0		5.6287177734375	0.16044711303710937	0		-0.303369384765625	5.84754931640625	0		
0.023353816986083985	-0.0011220719814300536	0		0.4872027587890625	-2.515730224609375	0		-0.9713505249023437	0.041460079193115236	0		-0.7847434692382812	-2.635039794921875	0		1.1863997802734374	-0.9180125732421875	0		3.1018408203125	-0.342593994140625	0		4.71056396484375	-0.2538519287109375	0		5.623814453125	0.16920022583007813	0		-0.304066162109375	5.84954296875	0		
-0.0036066229343414305	-9.447619915008545E-4	0		0.432169921875	-2.51035888671875	0		-1.0373079833984375	0.04198047637939453	0		-0.75475341796875	-2.626263916015625	0		1.1713675537109376	-0.921978759765625	0		3.142840087890625	-0.34607443237304686	0		4.71059130859375	-0.25408952331542967	0		5.63385302734375	0.16784547424316407	0		-0.33782049560546873	5.8427890625	0		
